<svg width="1475" height="561" viewBox="0 0 1475 561" fill="none" xmlns="http://www.w3.org/2000/svg">
<path d="M1474.76 59.5C1428.2 55.6334 1380.86 51.7667 1333.51 47.9C1093.63 30.1133 885.319 25.4733 643.075 29.34C525.503 30.8867 386.626 33.2067 269.844 37.8467C190.937 40.94 78.118 45.5402 0 52.5002L11.5039 134.82L1464.18 132.5L1474.76 59.5Z" fill="#9ACC44"/>
<g opacity="0.45">
<path opacity="0.45" d="M316.281 149.199C356.484 147.265 395.899 144.848 435.314 140.98C454.233 139.046 472.364 137.113 490.494 134.695C500.742 133.728 511.778 132.278 522.026 131.311C534.639 129.861 547.252 128.411 559.076 125.993C569.324 124.06 580.36 121.642 585.878 118.258C601.644 108.589 568.535 100.371 548.04 96.9867C514.931 91.1854 477.093 88.7682 440.832 86.8344C402.205 85.3841 362.791 84.4172 324.164 83.4503C281.596 82.4835 239.817 82 197.249 82C156.258 82 115.266 82.9669 73.4869 83.9338C52.9913 84.4172 32.4956 84.9007 12 84.9007V155C73.4869 153.066 134.974 154.033 196.461 153.066C236.664 152.099 276.867 151.132 316.281 149.199Z" fill="#9ACC44"/>
</g>
<g opacity="0.45">
<path opacity="0.6" d="M1322.63 33.2377C1082.9 24.9511 874.714 22.7894 632.618 24.5908C515.119 25.3114 376.327 26.3923 259.616 28.554C180.758 29.9951 90.0701 32.1569 12 35.3994V70.3471C60.1038 71.428 108.208 72.1486 156.311 71.428C194.164 71.0677 232.016 69.9869 269.079 67.1046C285.64 66.0237 302.2 64.5826 317.183 62.4209C325.069 61.34 334.532 59.8988 338.475 57.7371C344.784 54.1343 329.801 51.252 321.126 49.0903C311.663 46.9286 298.257 45.1272 292.737 41.8846C291.16 40.8037 290.371 39.7229 291.948 38.642C295.891 36.8406 305.354 36.4803 312.452 36.4803C325.858 36.12 339.264 36.12 353.458 35.7597C373.961 35.0391 395.253 34.3186 415.757 33.598C499.347 31.076 584.514 30.7157 668.893 30.7157C710.688 30.7157 752.483 30.7157 794.278 31.076C815.57 31.4363 836.073 31.7966 856.577 32.1568C875.503 32.5171 894.429 33.598 913.355 33.9583C932.281 34.3186 950.419 34.6789 969.345 35.3994C980.385 35.7597 992.214 36.4803 1003.25 37.5611C1011.14 38.2817 1019.03 39.0023 1025.33 40.4434C1042.68 44.7669 1011.93 48.0094 987.482 49.4506C1003.25 49.0903 1019.03 49.4506 1035.59 49.4506C1071.07 49.4506 1105.77 50.1711 1140.47 51.6123C1159.39 52.3329 1179.11 53.4137 1197.25 54.4946C1219.33 55.9357 1240.62 57.3769 1261.91 59.8989C1281.62 62.0606 1300.55 64.5826 1317.11 68.5457C1331.31 71.7883 1343.92 76.1117 1347.08 81.1557C1350.23 85.1189 1347.08 88.7217 1337.61 91.9643C1328.15 95.2068 1313.96 97.7289 1299.76 99.17C1283.2 101.332 1265.06 102.413 1246.93 103.493C1214.6 105.295 1182.26 106.015 1149.93 107.457C1079.75 109.979 1009.56 111.78 941.744 117.184C908.623 119.706 876.291 122.949 846.325 127.633C832.919 129.794 813.993 133.037 802.953 137L1463 182.5V38.642C1416.47 36.4803 1369.95 34.6789 1322.63 33.2377Z" fill="#A6DC49"/>
</g>
<path opacity="0.4" d="M1124.1 89.2265C1118.57 88.4531 1114.63 87.6798 1111.47 86.9064C1045.98 76.8531 981.274 77.6265 914.203 74.5331C907.102 74.5331 900.789 73.7598 893.687 73.7598C876.328 72.9865 858.968 72.2131 841.609 72.2131C854.234 70.6664 866.07 69.1198 878.695 67.5731C893.687 65.2531 908.68 62.9331 922.883 59.8398C933.93 57.5198 947.344 54.4265 956.813 49.7865C980.485 37.4131 878.695 25.8131 870.804 25.8131C784.006 19.6264 696.42 18.8531 609.622 22.7198C546.496 25.8131 474.691 28.1331 413.932 41.2798C383.947 47.4664 376.846 59.8398 398.94 73.7598C420.245 86.9065 451.019 90.7731 480.214 93.8665C495.206 95.4131 510.988 96.9598 526.769 97.7331C523.613 98.5065 521.246 100.053 521.246 102.373C521.246 104.693 525.98 106.24 528.347 107.013C533.082 108.56 539.394 109.333 545.707 110.106C582.004 115.52 618.302 117.066 655.388 117.066C652.232 118.613 649.864 119.386 646.708 120.933C641.185 124.026 636.45 127.893 636.45 132.533C635.661 134.853 637.239 136.4 638.817 137.173C644.341 142.586 655.388 144.133 664.857 145.68C679.849 148 696.42 148 712.201 148C795.053 148.773 877.906 147.226 959.18 140.266C991.532 137.173 1023.88 134.08 1055.45 130.213C1078.33 127.12 1101.21 122.48 1124.1 118.613C1140.67 115.52 1169.07 109.333 1157.24 99.2798C1151.71 94.6398 1135.93 91.5465 1124.1 89.2265Z" fill="#9ACC44"/>
<path opacity="0.4" d="M1392.35 116.772C1392.35 115.999 1393.14 115.999 1392.35 116.772C1393.14 115.999 1391.56 115.225 1390.77 115.999C1390.77 115.999 1389.98 115.999 1389.98 116.772C1389.2 116.772 1388.41 115.999 1387.62 115.999C1386.83 115.999 1386.83 116.772 1386.83 116.772C1386.83 116.772 1387.62 117.545 1388.41 117.545C1387.62 117.545 1386.83 118.319 1386.83 119.092C1386.83 119.865 1388.41 119.092 1389.2 119.092C1389.98 119.092 1390.77 118.319 1390.77 118.319C1390.77 119.092 1391.56 119.092 1391.56 119.092C1392.35 119.092 1393.14 119.092 1393.14 119.092C1393.14 119.092 1393.93 118.319 1393.14 118.319C1393.93 118.319 1393.93 118.318 1394.72 117.545C1394.72 116.772 1393.93 115.999 1392.35 116.772Z" fill="#9FB63A"/>
<path d="M1392.35 115.998C1392.35 115.998 1393.14 115.998 1392.35 115.998C1393.14 115.225 1391.56 114.452 1390.77 115.225C1390.77 115.225 1389.98 115.225 1389.98 115.998C1389.2 115.998 1388.41 115.225 1387.62 115.225C1386.83 115.225 1386.83 115.998 1386.83 115.998C1386.83 115.998 1387.62 116.772 1388.41 116.772C1387.62 116.772 1386.83 117.545 1386.83 118.318C1386.83 119.092 1388.41 118.318 1389.2 118.318C1389.98 118.318 1390.77 117.545 1390.77 117.545C1390.77 118.318 1391.56 118.318 1391.56 118.318C1392.35 118.318 1393.14 118.318 1393.14 118.318C1393.14 118.318 1393.93 117.545 1393.14 117.545C1393.93 117.545 1393.93 117.545 1394.72 116.772C1394.72 115.998 1393.93 115.998 1392.35 115.998Z" fill="white"/>
<path d="M1391.55 116.771L1390.76 117.545C1389.97 117.545 1389.97 117.545 1389.97 116.771L1390.76 115.998C1390.76 115.998 1391.55 115.998 1391.55 116.771Z" fill="#F8C95C"/>
<path opacity="0.4" d="M1419.19 30.1585C1419.98 28.6118 1418.4 28.6118 1417.61 29.3852L1416.82 30.1585C1416.03 29.3852 1415.24 29.3852 1414.45 29.3852C1413.66 29.3852 1412.88 30.1585 1412.88 30.1585C1412.88 30.9319 1413.66 30.9319 1414.45 30.9319C1413.66 30.9319 1412.88 31.7052 1412.88 32.4786C1412.88 33.2519 1414.45 32.4786 1415.24 32.4786C1416.03 32.4786 1416.82 31.7052 1417.61 31.7052C1417.61 32.4786 1418.4 32.4786 1419.19 32.4786C1419.98 32.4786 1420.77 32.4786 1420.77 32.4786C1420.77 32.4786 1421.55 31.7052 1420.77 31.7052C1421.55 31.7052 1422.34 31.7052 1422.34 30.9319C1421.55 30.1585 1419.98 30.1585 1419.19 30.1585Z" fill="#9FB63A"/>
<path d="M1419.19 30.1585C1419.19 29.3852 1419.19 29.3852 1419.19 30.1585C1419.98 28.6118 1418.4 28.6118 1417.61 29.3852L1416.82 30.1585C1416.03 29.3852 1415.24 29.3852 1414.45 29.3852C1413.66 29.3852 1412.88 30.1585 1412.88 30.1585C1412.88 30.9319 1413.66 30.9319 1414.45 30.9319C1413.66 30.9319 1412.88 31.7052 1412.88 32.4786C1412.88 33.2519 1414.45 32.4786 1415.24 32.4786C1416.03 32.4786 1416.82 31.7052 1417.61 31.7052C1417.61 32.4786 1418.4 32.4786 1419.19 32.4786C1419.98 32.4786 1420.77 32.4786 1420.77 32.4786C1420.77 32.4786 1421.55 31.7052 1420.77 31.7052C1421.55 31.7052 1422.34 31.7052 1422.34 30.9319C1421.55 29.3852 1419.98 29.3852 1419.19 30.1585Z" fill="white"/>
<path d="M1417.6 30.1584C1417.6 30.1584 1416.81 30.9318 1416.02 30.9318C1415.23 30.9318 1414.45 30.9318 1414.45 30.1584C1414.45 30.1584 1415.23 29.385 1416.02 29.385C1416.81 30.1584 1417.6 30.1584 1417.6 30.1584Z" fill="#F8C95C"/>
<path opacity="0.4" d="M1318.97 139.199C1318.97 139.199 1318.97 138.425 1318.97 139.199C1319.76 137.652 1318.18 136.879 1316.6 137.652C1316.6 137.652 1315.81 138.425 1315.02 138.425C1314.23 137.652 1312.66 136.879 1311.08 137.652C1310.29 137.652 1308.71 138.425 1308.71 139.199C1308.71 139.972 1309.5 139.972 1311.08 139.972C1309.5 140.745 1307.92 141.519 1307.92 142.292C1307.92 143.065 1311.08 143.065 1311.87 142.292C1312.66 142.292 1314.23 141.519 1315.02 140.745C1315.02 141.519 1315.81 142.292 1316.6 142.292C1317.39 142.292 1318.97 142.292 1318.97 141.519C1319.76 140.745 1319.76 140.745 1319.76 139.972C1320.55 139.972 1321.34 139.199 1322.13 139.199C1322.91 139.199 1320.55 139.199 1318.97 139.199Z" fill="#9FB63A"/>
<path d="M1318.97 138.425C1319.76 136.878 1318.18 136.105 1316.6 136.878C1316.6 136.878 1315.81 137.652 1315.02 137.652C1314.23 136.878 1312.66 136.105 1311.08 136.878C1310.29 136.878 1308.71 137.652 1308.71 138.425C1308.71 139.198 1309.5 139.198 1311.08 139.198C1309.5 139.972 1307.92 140.745 1307.92 141.518C1307.92 142.292 1311.08 142.292 1311.87 141.518C1312.66 141.518 1314.23 140.745 1315.02 139.972C1315.02 140.745 1315.81 141.518 1316.6 141.518C1317.39 141.518 1318.97 141.518 1318.97 140.745C1319.76 139.972 1319.76 139.972 1319.76 139.198C1320.55 139.198 1321.34 138.425 1322.13 138.425C1322.91 138.425 1320.55 138.425 1318.97 138.425Z" fill="white"/>
<path d="M1316.59 139.199C1316.59 139.972 1315.8 139.972 1315.02 139.972C1314.23 139.972 1313.44 139.972 1313.44 139.199C1313.44 138.425 1314.23 138.425 1315.02 138.425C1315.8 138.425 1316.59 139.199 1316.59 139.199Z" fill="#F8C95C"/>
<path opacity="0.4" d="M1407.35 149.253C1407.35 149.253 1408.14 149.253 1407.35 149.253C1408.14 147.706 1406.56 147.706 1405.77 148.479L1404.98 149.253C1404.2 148.479 1403.41 148.479 1402.62 148.479C1401.83 148.479 1401.04 149.253 1401.04 149.253C1401.04 150.026 1401.83 150.026 1402.62 150.026C1401.83 150.026 1401.04 150.799 1401.04 151.572C1401.04 152.346 1402.62 151.572 1403.41 151.572C1404.2 151.572 1404.98 150.799 1405.77 150.799C1405.77 151.572 1406.56 151.572 1407.35 151.572C1408.14 151.572 1408.93 151.572 1408.93 151.572C1408.93 151.572 1409.72 150.799 1408.93 150.799C1409.72 150.799 1410.51 150.799 1410.51 150.026C1410.51 149.252 1408.93 149.253 1407.35 149.253Z" fill="#9FB63A"/>
<path d="M1407.35 149.253C1407.35 149.253 1408.14 148.479 1407.35 149.253C1408.14 147.706 1406.56 147.706 1405.77 148.479L1404.98 149.253C1404.2 148.479 1403.41 148.479 1402.62 148.479C1401.83 148.479 1401.04 149.253 1401.04 149.253C1401.04 150.026 1401.83 150.026 1402.62 150.026C1401.83 150.026 1401.04 150.799 1401.04 151.572C1401.04 152.346 1402.62 151.572 1403.41 151.572C1404.2 151.572 1404.98 150.799 1405.77 150.799C1405.77 151.572 1406.56 151.572 1407.35 151.572C1408.14 151.572 1408.93 151.572 1408.93 151.572C1408.93 151.572 1409.72 150.799 1408.93 150.799C1409.72 150.799 1410.51 150.799 1410.51 150.026C1410.51 149.252 1408.93 149.253 1407.35 149.253Z" fill="white"/>
<path d="M1406.57 149.252C1406.57 149.252 1405.78 150.026 1404.99 150.026C1404.2 150.026 1403.41 150.026 1403.41 149.252C1403.41 149.252 1404.2 148.479 1404.99 148.479C1405.78 149.252 1406.57 149.252 1406.57 149.252Z" fill="#F8C95C"/>
<path opacity="0.4" d="M1393.14 103.625C1393.14 103.625 1393.93 103.625 1393.14 103.625C1393.93 102.078 1392.35 102.078 1391.56 102.852L1390.77 103.625C1389.98 102.852 1389.2 102.852 1388.41 102.852C1387.62 102.852 1386.83 103.625 1386.83 103.625C1386.83 104.398 1387.62 104.398 1388.41 104.398C1387.62 104.398 1386.83 105.172 1386.83 105.945C1386.83 106.718 1388.41 105.945 1389.2 105.945C1389.98 105.945 1390.77 105.172 1391.56 105.172C1391.56 105.945 1392.35 105.945 1393.14 105.945C1393.93 105.945 1394.72 105.945 1394.72 105.945C1394.72 105.945 1395.51 105.172 1394.72 105.172C1395.51 105.172 1396.3 105.172 1396.3 104.398C1396.3 103.625 1394.72 103.625 1393.14 103.625Z" fill="#9FB63A"/>
<path d="M1393.14 103.625C1393.14 102.852 1393.93 102.852 1393.14 103.625C1393.93 102.078 1392.35 102.078 1391.56 102.852L1390.77 103.625C1389.98 102.852 1389.2 102.852 1388.41 102.852C1387.62 102.852 1386.83 103.625 1386.83 103.625C1386.83 104.398 1387.62 104.398 1388.41 104.398C1387.62 104.398 1386.83 105.172 1386.83 105.945C1386.83 106.718 1388.41 105.945 1389.2 105.945C1389.98 105.945 1390.77 105.172 1391.56 105.172C1391.56 105.945 1392.35 105.945 1393.14 105.945C1393.93 105.945 1394.72 105.945 1394.72 105.945C1394.72 105.945 1395.51 105.172 1394.72 105.172C1395.51 105.172 1396.3 105.172 1396.3 104.398C1396.3 103.625 1394.72 102.852 1393.14 103.625Z" fill="white"/>
<path d="M1392.36 103.625C1392.36 103.625 1391.57 104.398 1390.78 104.398C1389.99 104.398 1389.2 104.398 1389.2 103.625C1389.2 103.625 1389.99 102.852 1390.78 102.852C1391.57 103.625 1392.36 103.625 1392.36 103.625Z" fill="#F8C95C"/>
<path opacity="0.4" d="M1408.13 98.9852C1408.92 97.4385 1407.34 96.6652 1405.77 97.4385C1405.77 97.4385 1404.98 98.2118 1404.19 98.2118C1403.4 97.4385 1401.82 96.6652 1400.24 97.4385C1399.45 97.4385 1398.66 98.2118 1398.66 98.9852C1398.66 99.7585 1399.45 99.7585 1401.03 99.7585C1399.45 100.532 1398.66 101.305 1398.66 102.078C1398.66 102.852 1401.03 102.078 1401.82 102.078C1402.61 102.078 1404.19 101.305 1404.98 100.532C1404.98 101.305 1405.77 101.305 1406.55 102.078C1407.34 102.078 1408.13 102.078 1408.92 101.305C1409.71 100.532 1409.71 100.532 1409.71 99.7585C1410.5 99.7585 1411.29 98.9852 1412.08 98.9852C1411.29 98.9852 1409.71 98.9852 1408.13 98.9852Z" fill="#9FB63A"/>
<path d="M1408.13 98.2117C1408.92 96.665 1407.34 95.8917 1405.77 96.6651C1405.77 96.6651 1404.98 97.4384 1404.19 97.4384C1403.4 96.665 1401.82 95.8917 1400.24 96.6651C1399.45 96.6651 1398.66 97.4384 1398.66 98.2117C1398.66 98.985 1399.45 98.9851 1401.03 98.9851C1399.45 99.7584 1398.66 100.532 1398.66 101.305C1398.66 102.078 1401.03 102.078 1401.82 101.305C1402.61 101.305 1404.19 100.532 1404.98 99.7584C1404.98 100.532 1405.77 100.532 1406.55 101.305C1407.34 101.305 1408.13 101.305 1408.92 100.532C1409.71 99.7584 1409.71 99.7584 1409.71 98.9851C1410.5 98.9851 1411.29 98.2117 1412.08 98.2117C1411.29 98.2117 1409.71 98.2117 1408.13 98.2117Z" fill="white"/>
<path d="M1405.77 98.9851C1405.77 99.7584 1404.98 99.7584 1404.19 99.7584C1403.4 99.7584 1402.61 99.7584 1402.61 98.9851C1402.61 98.2117 1403.4 98.2117 1404.19 98.2117C1404.98 98.2117 1405.77 98.9851 1405.77 98.9851Z" fill="#F8C95C"/>
<path opacity="0.4" d="M1070.41 123.732C1071.2 122.959 1069.62 122.185 1068.83 122.959C1068.83 122.959 1068.04 122.959 1068.04 123.732C1067.25 123.732 1066.46 122.959 1065.68 122.959C1064.89 122.959 1064.89 123.732 1064.89 123.732C1064.89 123.732 1065.68 124.505 1066.46 124.505C1065.68 124.505 1064.89 125.279 1064.89 126.052C1064.89 126.825 1066.46 126.052 1067.25 126.052C1068.04 126.052 1068.83 125.279 1068.83 125.279C1068.83 126.052 1069.62 126.052 1069.62 126.052C1070.41 126.052 1071.2 126.052 1071.2 126.052C1071.2 126.052 1071.99 125.279 1071.2 125.279C1071.99 125.279 1071.99 125.279 1072.78 124.505C1071.99 123.732 1071.2 123.732 1070.41 123.732Z" fill="#9FB63A"/>
<path d="M1070.41 123.732C1071.2 122.959 1069.62 122.185 1068.83 122.959C1068.83 122.959 1068.04 122.959 1068.04 123.732C1067.25 123.732 1066.46 122.959 1065.68 122.959C1064.89 122.959 1064.89 123.732 1064.89 123.732C1064.89 123.732 1065.68 124.505 1066.46 124.505C1065.68 124.505 1064.89 125.279 1064.89 126.052C1064.89 126.825 1066.46 126.052 1067.25 126.052C1068.04 126.052 1068.83 125.279 1068.83 125.279L1069.62 126.052C1070.41 126.052 1071.2 126.052 1071.2 126.052C1071.2 126.052 1071.99 125.279 1071.2 125.279C1071.99 125.279 1071.99 125.279 1072.78 124.505C1071.99 123.732 1071.2 123.732 1070.41 123.732Z" fill="white"/>
<path d="M1068.84 124.505L1068.05 125.278C1068.05 125.278 1067.26 125.278 1067.26 124.505L1068.05 123.731C1068.05 123.731 1068.84 123.731 1068.84 124.505Z" fill="#F8C95C"/>
<path opacity="0.4" d="M1030.17 146.932C1030.96 145.385 1029.38 145.385 1028.59 146.158L1027.8 146.932C1027.02 146.158 1026.23 146.158 1025.44 146.158C1024.65 146.158 1023.86 146.932 1023.86 146.932C1023.86 147.705 1024.65 147.705 1025.44 147.705C1024.65 147.705 1023.86 148.478 1023.86 149.252C1023.86 150.025 1025.44 149.252 1026.23 149.252C1027.02 149.252 1027.8 148.478 1028.59 148.478C1028.59 149.252 1029.38 149.252 1030.17 149.252C1030.96 149.252 1031.75 149.252 1031.75 149.252C1032.54 149.252 1032.54 148.478 1031.75 148.478C1032.54 148.478 1033.33 148.478 1033.33 147.705C1032.54 146.932 1031.75 146.932 1030.17 146.932Z" fill="#9FB63A"/>
<path d="M1030.17 146.932C1030.17 146.158 1030.17 146.158 1030.17 146.932C1030.96 145.385 1029.38 145.385 1028.59 146.158L1027.8 146.932C1027.02 146.158 1026.23 146.158 1025.44 146.158C1024.65 146.158 1023.86 146.932 1023.86 146.932C1023.86 147.705 1024.65 147.705 1025.44 147.705C1024.65 147.705 1023.86 148.478 1023.86 149.252C1023.86 150.025 1025.44 149.252 1026.23 149.252C1027.02 149.252 1027.8 148.478 1028.59 148.478C1028.59 149.252 1029.38 149.252 1030.17 149.252C1030.96 149.252 1031.75 149.252 1031.75 149.252C1032.54 149.252 1032.54 148.478 1031.75 148.478C1032.54 148.478 1033.33 148.478 1033.33 147.705C1032.54 146.932 1031.75 146.158 1030.17 146.932Z" fill="white"/>
<path d="M1028.59 146.932C1028.59 146.932 1027.8 147.705 1027.01 147.705C1026.22 147.705 1025.43 147.705 1025.43 146.932C1025.43 146.158 1026.22 146.158 1027.01 146.158C1028.59 146.932 1028.59 146.932 1028.59 146.932Z" fill="#F8C95C"/>
<path opacity="0.4" d="M1108.3 146.932C1109.09 145.385 1107.51 144.612 1105.93 145.385C1105.93 145.385 1105.14 146.159 1104.35 146.159C1103.56 145.385 1101.98 144.612 1100.41 145.385C1099.62 145.385 1098.04 146.159 1098.04 146.932C1098.04 147.705 1098.83 147.705 1100.41 147.705C1098.83 148.479 1097.25 149.252 1097.25 150.025C1097.25 150.799 1100.41 150.799 1101.2 150.025C1101.98 150.025 1103.56 149.252 1104.35 148.479C1104.35 149.252 1105.14 150.025 1105.93 150.025C1106.72 150.025 1108.3 150.025 1108.3 149.252C1109.09 148.479 1109.09 148.479 1109.09 147.705C1109.88 147.705 1111.45 146.932 1111.45 146.932C1111.45 146.932 1109.88 146.932 1108.3 146.932Z" fill="#9FB63A"/>
<path d="M1108.3 146.159C1109.09 144.612 1107.51 143.838 1105.93 144.612C1105.93 144.612 1105.14 145.385 1104.35 145.385C1103.56 144.612 1101.98 143.838 1100.41 144.612C1099.62 144.612 1098.04 145.385 1098.04 146.159C1098.04 146.932 1098.83 146.932 1100.41 146.932C1098.83 147.705 1097.25 148.479 1097.25 149.252C1097.25 150.025 1100.41 150.025 1101.2 149.252C1101.98 149.252 1103.56 148.479 1104.35 147.705C1104.35 148.479 1105.14 149.252 1105.93 149.252C1106.72 149.252 1108.3 149.252 1108.3 148.479C1109.09 147.705 1109.09 147.705 1109.09 146.932C1109.88 146.932 1111.45 146.159 1111.45 146.159C1111.45 146.159 1109.88 146.159 1108.3 146.159Z" fill="white"/>
<path d="M1105.92 146.932C1105.92 147.705 1105.13 147.705 1104.34 147.705C1103.55 147.705 1102.77 147.705 1102.77 146.932C1102.77 146.159 1103.55 146.159 1104.34 146.159C1105.13 146.159 1105.92 146.932 1105.92 146.932Z" fill="#F8C95C"/>
<path opacity="0.4" d="M1085.41 156.985C1086.2 155.439 1084.62 155.439 1083.83 156.212L1083.04 156.985C1082.25 156.212 1081.46 156.212 1080.67 156.212C1079.88 156.212 1079.09 156.985 1079.09 156.985C1079.09 157.759 1079.88 157.759 1080.67 157.759C1079.88 157.759 1079.09 158.532 1079.09 159.305C1079.09 160.079 1080.67 159.305 1081.46 159.305C1082.25 159.305 1083.04 158.532 1083.83 158.532C1083.83 159.305 1084.62 159.305 1085.41 159.305C1086.2 159.305 1086.98 159.305 1086.98 159.305C1086.98 159.305 1087.77 158.532 1086.98 158.532C1087.77 158.532 1088.56 158.532 1088.56 157.759C1087.77 156.985 1086.2 156.985 1085.41 156.985Z" fill="#9FB63A"/>
<path d="M1085.41 156.985C1085.41 156.212 1085.41 156.212 1085.41 156.985C1086.2 155.439 1084.62 155.439 1083.83 156.212L1083.04 156.985C1082.25 156.212 1081.46 156.212 1080.67 156.212C1079.88 156.212 1079.09 156.985 1079.09 156.985C1079.09 157.759 1079.88 157.759 1080.67 157.759C1079.88 157.759 1079.09 158.532 1079.09 159.305C1079.09 160.079 1080.67 159.305 1081.46 159.305C1082.25 159.305 1083.04 158.532 1083.83 158.532C1083.83 159.305 1084.62 159.305 1085.41 159.305C1086.2 159.305 1086.98 159.305 1086.98 159.305C1086.98 159.305 1087.77 158.532 1086.98 158.532C1087.77 158.532 1088.56 158.532 1088.56 157.759C1087.77 156.212 1086.2 156.212 1085.41 156.985Z" fill="white"/>
<path d="M1083.82 156.985C1083.82 156.985 1083.03 157.759 1082.24 157.759C1081.45 157.759 1080.66 157.759 1080.66 156.985C1080.66 156.212 1081.45 156.212 1082.24 156.212C1083.03 156.212 1083.82 156.985 1083.82 156.985Z" fill="#F8C95C"/>
<path opacity="0.4" d="M1128.8 154.665C1129.59 153.892 1129.59 153.892 1128.8 154.665C1129.59 153.118 1128.02 153.118 1127.23 153.892L1126.44 154.665C1125.65 153.892 1124.86 153.892 1124.07 153.892C1123.28 153.892 1122.49 154.665 1122.49 154.665C1122.49 155.438 1123.28 155.438 1124.07 155.438C1123.28 155.438 1122.49 156.212 1122.49 156.985C1122.49 157.758 1124.07 156.985 1124.86 156.985C1125.65 156.985 1126.44 156.212 1127.23 156.212C1127.23 156.985 1128.02 156.985 1128.8 156.985C1129.59 156.985 1130.38 156.985 1130.38 156.985C1130.38 156.985 1131.17 156.212 1130.38 156.212C1131.17 156.212 1131.96 156.212 1131.96 155.438C1131.96 153.892 1130.38 153.892 1128.8 154.665Z" fill="#9FB63A"/>
<path d="M1128.8 153.892C1129.59 153.892 1129.59 153.892 1128.8 153.892C1129.59 152.345 1128.02 152.345 1127.23 153.118L1126.44 153.892C1125.65 153.118 1124.86 153.118 1124.07 153.118C1123.28 153.118 1122.49 153.892 1122.49 153.892C1122.49 154.665 1123.28 154.665 1124.07 154.665C1123.28 154.665 1122.49 155.438 1122.49 156.212C1122.49 156.985 1124.07 156.212 1124.86 156.212C1125.65 156.212 1126.44 155.438 1127.23 155.438C1127.23 156.212 1128.02 156.212 1128.8 156.212C1129.59 156.212 1130.38 156.212 1130.38 156.212C1130.38 156.212 1131.17 155.438 1130.38 155.438C1131.17 155.438 1131.96 155.438 1131.96 154.665C1131.96 153.892 1130.38 153.892 1128.8 153.892Z" fill="white"/>
<path d="M1128.02 154.665C1128.02 154.665 1127.23 155.439 1126.45 155.439C1125.66 155.439 1124.87 155.439 1124.87 154.665C1124.87 154.665 1125.66 153.892 1126.45 153.892C1127.23 153.892 1128.02 153.892 1128.02 154.665Z" fill="#F8C95C"/>
<path opacity="0.4" d="M1143.8 150.025C1143.8 149.252 1143.8 149.252 1143.8 150.025C1144.59 148.479 1143.01 147.705 1141.43 148.479C1141.43 148.479 1140.64 149.252 1139.85 149.252C1139.06 148.479 1137.48 147.705 1135.91 148.479C1135.12 148.479 1134.33 149.252 1134.33 150.025C1134.33 150.799 1135.12 150.799 1136.7 150.799C1135.12 151.572 1134.33 152.345 1134.33 153.119C1134.33 153.892 1136.7 153.119 1137.48 153.119C1138.27 153.119 1139.85 152.345 1140.64 151.572C1140.64 152.345 1141.43 152.345 1142.22 153.119C1143.01 153.119 1144.59 153.119 1144.59 152.345C1145.38 151.572 1145.38 151.572 1145.38 150.799C1146.16 150.799 1146.95 150.025 1147.74 150.025C1146.95 149.252 1145.38 149.252 1143.8 150.025Z" fill="#9FB63A"/>
<path d="M1143.8 149.252C1143.8 149.252 1143.8 148.478 1143.8 149.252C1144.59 147.705 1143.01 146.932 1141.43 147.705C1141.43 147.705 1140.64 148.478 1139.85 148.478C1139.06 147.705 1137.48 146.932 1135.91 147.705C1135.12 147.705 1134.33 148.478 1134.33 149.252C1134.33 150.025 1135.12 150.025 1136.7 150.025C1135.12 150.798 1134.33 151.572 1134.33 152.345C1134.33 153.118 1136.7 152.345 1137.48 152.345C1138.27 152.345 1139.85 151.572 1140.64 150.798C1140.64 151.572 1141.43 151.572 1142.22 152.345C1143.01 152.345 1144.59 152.345 1144.59 151.572C1145.38 150.798 1145.38 150.798 1145.38 150.025C1146.16 150.025 1146.95 149.252 1147.74 149.252C1146.95 149.252 1145.38 149.252 1143.8 149.252Z" fill="white"/>
<path d="M1142.23 150.025C1142.23 150.799 1141.44 150.799 1140.65 150.799C1139.86 150.799 1139.07 150.799 1139.07 150.025C1139.07 149.252 1139.86 149.252 1140.65 149.252C1141.44 149.252 1142.23 149.252 1142.23 150.025Z" fill="#F8C95C"/>
<path opacity="0.4" d="M548.684 98.0935C548.684 98.0935 549.473 98.0935 548.684 98.0935C549.473 97.3202 547.894 96.5469 547.105 97.3202C547.105 97.3202 546.316 97.3202 546.316 98.0935C545.527 98.0935 544.738 97.3202 543.949 97.3202C543.16 97.3202 543.16 98.0935 543.16 98.0935C543.16 98.0935 543.949 98.8669 544.738 98.8669C543.949 98.8669 543.16 99.6403 543.16 100.414C543.16 101.187 544.738 100.414 545.527 100.414C546.316 100.414 547.105 99.6402 547.105 99.6402C547.105 100.414 547.894 100.414 547.894 100.414C548.684 100.414 549.473 100.414 549.473 100.414C549.473 100.414 550.262 99.6402 549.473 99.6402C550.262 99.6402 550.262 99.6402 551.051 98.8669C551.051 98.0935 550.262 98.0935 548.684 98.0935Z" fill="#9FB63A"/>
<path d="M548.684 98.0935C548.684 98.0935 549.473 98.0935 548.684 98.0935C549.473 97.3202 547.894 96.5469 547.105 97.3202C547.105 97.3202 546.316 97.3202 546.316 98.0935C545.527 98.0935 544.738 97.3202 543.949 97.3202C543.16 97.3202 543.16 98.0935 543.16 98.0935C543.16 98.0935 543.949 98.8669 544.738 98.8669C543.949 98.8669 543.16 99.6403 543.16 100.414C543.16 101.187 544.738 100.414 545.527 100.414C546.316 100.414 547.105 99.6402 547.105 99.6402L547.894 100.414C548.684 100.414 549.473 100.414 549.473 100.414C549.473 100.414 550.262 99.6402 549.473 99.6402C550.262 99.6402 550.262 99.6402 551.051 98.8669C551.051 98.0935 550.262 98.0935 548.684 98.0935Z" fill="white"/>
<path d="M547.883 98.8664L547.094 99.6396C546.305 99.6396 546.305 99.6397 546.305 98.8664L547.094 98.0931C547.094 98.0931 547.883 98.0931 547.883 98.8664Z" fill="#F8C95C"/>
<path opacity="0.4" d="M375.242 159.307C376.031 157.76 374.453 157.76 373.664 158.533L372.875 159.307C372.086 158.533 371.297 158.533 370.508 158.533C369.719 158.533 368.93 159.307 368.93 159.307C368.93 160.08 369.719 160.08 370.508 160.08C369.719 160.08 368.93 160.853 368.93 161.627C368.93 162.4 370.508 161.627 371.297 161.627C372.086 161.627 372.875 160.853 373.664 160.853C373.664 161.627 374.453 161.627 375.242 161.627C376.031 161.627 376.82 161.627 376.82 161.627C376.82 161.627 377.609 160.853 376.82 160.853C377.609 160.853 378.399 160.853 378.399 160.08C377.609 159.307 376.82 159.307 375.242 159.307Z" fill="#9FB63A"/>
<path d="M375.242 159.307C376.031 157.76 374.453 157.76 373.664 158.533L372.875 159.307C372.086 158.533 371.297 158.533 370.508 158.533C369.719 158.533 368.93 159.307 368.93 159.307C368.93 160.08 369.719 160.08 370.508 160.08C369.719 160.08 368.93 160.853 368.93 161.627C368.93 162.4 370.508 161.627 371.297 161.627C372.086 161.627 372.875 160.853 373.664 160.853C373.664 161.627 374.453 161.627 375.242 161.627C376.031 161.627 376.82 161.627 376.82 161.627C376.82 161.627 377.609 160.853 376.82 160.853C377.609 160.853 378.399 160.853 378.399 160.08C377.609 159.307 376.82 159.307 375.242 159.307Z" fill="white"/>
<path d="M374.461 160.081C374.461 160.081 373.672 160.854 372.883 160.854C372.094 160.854 371.305 160.854 371.305 160.081C371.305 160.081 372.094 159.307 372.883 159.307C373.672 159.307 374.461 159.307 374.461 160.081Z" fill="#F8C95C"/>
<path opacity="0.4" d="M427.313 211.212C428.102 209.666 426.523 209.666 425.734 210.439L424.945 211.212C424.156 210.439 423.367 210.439 422.578 210.439C421.789 210.439 421 211.212 421 211.212C421 211.986 421.789 211.986 422.578 211.986C421.789 211.986 421 212.759 421 213.532C421 214.306 422.578 213.532 423.367 213.532C424.156 213.532 424.945 212.759 425.734 212.759C425.734 213.532 426.523 213.532 427.313 213.532C428.102 213.532 428.891 213.532 428.891 213.532C428.891 213.532 429.68 212.759 428.891 212.759C429.68 212.759 430.469 212.759 430.469 211.986C429.68 211.212 428.891 211.212 427.313 211.212Z" fill="#9FB63A"/>
<path d="M427.313 211.212C428.102 209.666 426.523 209.666 425.734 210.439L424.945 211.212C424.156 210.439 423.367 210.439 422.578 210.439C421.789 210.439 421 211.212 421 211.212C421 211.986 421.789 211.986 422.578 211.986C421.789 211.986 421 212.759 421 213.532C421 214.306 422.578 213.532 423.367 213.532C424.156 213.532 424.945 212.759 425.734 212.759C425.734 213.532 426.523 213.532 427.313 213.532C428.102 213.532 428.891 213.532 428.891 213.532C428.891 213.532 429.68 212.759 428.891 212.759C429.68 212.759 430.469 212.759 430.469 211.986C429.68 211.212 428.891 211.212 427.313 211.212Z" fill="white"/>
<path d="M426.531 211.986C426.531 211.986 425.742 212.76 424.953 212.76C424.164 212.76 423.375 212.76 423.375 211.986C423.375 211.986 424.164 211.213 424.953 211.213C425.742 211.213 426.531 211.213 426.531 211.986Z" fill="#F8C95C"/>
<path opacity="0.4" d="M843.313 40.1931C844.102 38.6033 842.523 38.6033 841.734 39.3982L840.945 40.1931C840.156 39.3982 839.367 39.3982 838.578 39.3982C837.789 39.3982 837 40.1931 837 40.1931C837 40.988 837.789 40.988 838.578 40.988C837.789 40.988 837 41.783 837 42.5779C837 43.3728 838.578 42.5779 839.367 42.5779C840.156 42.5779 840.945 41.783 841.734 41.783C841.734 42.5779 842.523 42.5779 843.313 42.5779C844.102 42.5779 844.891 42.5779 844.891 42.5779C844.891 42.5779 845.68 41.783 844.891 41.783C845.68 41.783 846.469 41.7829 846.469 40.988C845.68 40.1931 844.891 40.1931 843.313 40.1931Z" fill="#9FB63A"/>
<path d="M843.313 40.1931C844.102 38.6033 842.523 38.6033 841.734 39.3982L840.945 40.1931C840.156 39.3982 839.367 39.3982 838.578 39.3982C837.789 39.3982 837 40.1931 837 40.1931C837 40.988 837.789 40.988 838.578 40.988C837.789 40.988 837 41.783 837 42.5779C837 43.3728 838.578 42.5779 839.367 42.5779C840.156 42.5779 840.945 41.783 841.734 41.783C841.734 42.5779 842.523 42.5779 843.313 42.5779C844.102 42.5779 844.891 42.5779 844.891 42.5779C844.891 42.5779 845.68 41.783 844.891 41.783C845.68 41.783 846.469 41.7829 846.469 40.988C845.68 40.1931 844.891 40.1931 843.313 40.1931Z" fill="white"/>
<path d="M842.531 40.9887C842.531 40.9887 841.742 41.7838 840.953 41.7838C840.164 41.7838 839.375 41.7837 839.375 40.9887C839.375 40.9887 840.164 40.1937 840.953 40.1937C841.742 40.1937 842.531 40.1937 842.531 40.9887Z" fill="#F8C95C"/>
<path opacity="0.4" d="M375.242 557.509C376.031 555.963 374.453 555.963 373.664 556.736L372.875 557.509C372.086 556.736 371.297 556.736 370.508 556.736C369.719 556.736 368.93 557.509 368.93 557.509C368.93 558.283 369.719 558.283 370.508 558.283C369.719 558.283 368.93 559.056 368.93 559.829C368.93 560.603 370.508 559.829 371.297 559.829C372.086 559.829 372.875 559.056 373.664 559.056C373.664 559.829 374.453 559.829 375.242 559.829C376.031 559.829 376.82 559.829 376.82 559.829C376.82 559.829 377.609 559.056 376.82 559.056C377.609 559.056 378.399 559.056 378.399 558.283C377.609 557.509 376.82 557.509 375.242 557.509Z" fill="#9FB63A"/>
<path d="M375.242 557.509C376.031 555.963 374.453 555.963 373.664 556.736L372.875 557.509C372.086 556.736 371.297 556.736 370.508 556.736C369.719 556.736 368.93 557.509 368.93 557.509C368.93 558.283 369.719 558.283 370.508 558.283C369.719 558.283 368.93 559.056 368.93 559.829C368.93 560.603 370.508 559.829 371.297 559.829C372.086 559.829 372.875 559.056 373.664 559.056C373.664 559.829 374.453 559.829 375.242 559.829C376.031 559.829 376.82 559.829 376.82 559.829C376.82 559.829 377.609 559.056 376.82 559.056C377.609 559.056 378.399 559.056 378.399 558.283C377.609 557.509 376.82 557.509 375.242 557.509Z" fill="white"/>
<path d="M374.461 558.283C374.461 558.283 373.672 559.057 372.883 559.057C372.094 559.057 371.305 559.057 371.305 558.283C371.305 558.283 372.094 557.51 372.883 557.51C373.672 557.51 374.461 557.51 374.461 558.283Z" fill="#F8C95C"/>
<path opacity="0.4" d="M586.57 121.294C586.57 121.294 587.36 121.294 586.57 121.294C587.36 119.747 585.781 118.974 584.203 119.747C584.203 119.747 583.414 120.521 582.625 120.521C581.836 119.747 580.258 118.974 578.68 119.747C577.891 119.747 577.102 120.521 576.312 121.294C576.312 122.067 577.102 122.067 578.68 122.067C577.102 122.841 575.523 123.614 575.523 124.388C575.523 125.161 578.68 125.161 578.68 124.388C579.469 124.388 581.047 123.614 581.836 122.841C581.836 123.614 582.625 124.388 583.414 124.388C584.203 124.388 585.781 124.388 585.781 123.614C586.57 122.841 586.57 122.841 586.57 122.067C587.36 122.067 588.938 121.294 588.938 121.294C590.516 121.294 588.938 121.294 586.57 121.294Z" fill="#9FB63A"/>
<path d="M586.57 120.521C586.57 120.521 587.36 120.521 586.57 120.521C587.36 118.974 585.781 118.201 584.203 118.974C584.203 118.974 583.414 119.747 582.625 119.747C581.836 118.974 580.258 118.201 578.68 118.974C577.891 118.974 577.102 119.747 576.312 120.521C576.312 121.294 577.102 121.294 578.68 121.294C577.102 122.067 575.523 122.841 575.523 123.614C575.523 124.387 578.68 124.387 578.68 123.614C579.469 123.614 581.047 122.841 581.836 122.067C581.836 122.841 582.625 123.614 583.414 123.614C584.203 123.614 585.781 123.614 585.781 122.841C586.57 122.067 586.57 122.067 586.57 121.294C587.36 121.294 588.938 120.521 588.938 120.521C590.516 120.521 588.938 120.521 586.57 120.521Z" fill="white"/>
<path d="M585 121.294C585 122.068 584.211 122.068 583.422 122.068C582.633 122.068 581.844 122.068 581.844 121.294C581.844 120.521 582.633 120.521 583.422 120.521C584.211 120.521 585 121.294 585 121.294Z" fill="#F8C95C"/>
<path opacity="0.4" d="M563.68 131.347C563.68 131.347 564.469 131.347 563.68 131.347C564.469 129.801 562.891 129.801 562.102 130.574L561.313 131.347C560.523 130.574 559.734 130.574 558.945 130.574C558.156 130.574 557.367 131.347 557.367 131.347C557.367 132.121 558.156 132.121 558.945 132.121C558.156 132.121 557.367 132.894 557.367 133.667C557.367 134.441 558.945 133.667 559.734 133.667C560.523 133.667 561.312 132.894 562.102 132.894C562.102 133.667 562.891 133.667 563.68 133.667C564.469 133.667 565.258 133.667 565.258 133.667C565.258 133.667 566.047 132.894 565.258 132.894C566.047 132.894 566.836 132.894 566.836 132.121C566.047 131.347 565.258 131.347 563.68 131.347Z" fill="#9FB63A"/>
<path d="M563.68 131.347C563.68 130.574 564.469 130.574 563.68 131.347C564.469 129.801 562.891 129.801 562.102 130.574L561.313 131.347C560.523 130.574 559.734 130.574 558.945 130.574C558.156 130.574 557.367 131.347 557.367 131.347C557.367 132.121 558.156 132.121 558.945 132.121C558.156 132.121 557.367 132.894 557.367 133.667C557.367 134.441 558.945 133.667 559.734 133.667C560.523 133.667 561.312 132.894 562.102 132.894C562.102 133.667 562.891 133.667 563.68 133.667C564.469 133.667 565.258 133.667 565.258 133.667C565.258 133.667 566.047 132.894 565.258 132.894C566.047 132.894 566.836 132.894 566.836 132.121C566.047 130.574 565.258 130.574 563.68 131.347Z" fill="white"/>
<path d="M562.898 131.347C562.898 131.347 562.109 132.121 561.32 132.121C560.531 132.121 559.742 132.121 559.742 131.347C559.742 130.574 560.531 130.574 561.32 130.574C562.109 130.574 562.898 131.347 562.898 131.347Z" fill="#F8C95C"/>
<path opacity="0.4" d="M209.555 139.973C209.555 139.973 209.555 139.2 209.555 139.973C210.344 138.426 208.766 137.653 207.188 138.426C207.188 138.426 206.399 139.2 205.609 139.2C204.82 138.426 203.242 137.653 201.664 138.426C200.875 138.426 199.297 139.2 199.297 139.973C199.297 140.746 200.086 140.746 201.664 140.746C200.086 141.52 198.508 142.293 198.508 143.066C198.508 143.84 201.664 143.84 202.453 143.066C203.242 143.066 204.82 142.293 205.609 141.52C205.609 142.293 206.399 143.066 207.188 143.066C207.977 143.066 209.555 143.066 209.555 142.293C210.344 141.52 210.344 141.52 210.344 140.746C211.133 140.746 211.922 139.973 212.711 139.973C213.5 139.973 211.133 139.973 209.555 139.973Z" fill="#9FB63A"/>
<path d="M209.555 139.199C210.344 137.653 208.766 136.879 207.188 137.653C207.188 137.653 206.399 138.426 205.609 139.199C204.82 138.426 203.242 137.653 201.664 138.426C200.875 138.426 199.297 139.199 199.297 139.973C199.297 140.746 200.086 140.746 201.664 140.746C200.086 141.519 198.508 142.293 198.508 143.066C198.508 143.839 201.664 143.839 202.453 143.066C203.242 143.066 204.82 142.293 205.609 141.519C205.609 142.293 206.399 143.066 207.188 143.066C207.977 143.066 209.555 143.066 209.555 142.293C210.344 141.519 210.344 141.519 210.344 140.746C211.133 140.746 211.922 139.973 212.711 139.973C213.5 139.199 211.133 139.199 209.555 139.199Z" fill="white"/>
<path d="M207.984 139.973C207.984 140.746 207.195 140.746 206.406 140.746C205.617 140.746 204.828 140.746 204.828 139.973C204.828 139.2 205.617 139.2 206.406 139.2L207.984 139.973Z" fill="#F8C95C"/>
<path opacity="0.4" d="M186.664 150.026C187.453 148.479 185.875 148.479 185.086 149.253L184.297 150.026C183.508 149.253 182.719 149.253 181.93 149.253C181.141 149.253 180.352 150.026 180.352 150.026C180.352 150.799 181.141 150.799 181.93 150.799C181.141 150.799 180.352 151.573 180.352 152.346C180.352 153.119 181.93 152.346 182.719 152.346C183.508 152.346 184.297 151.573 185.086 151.573C185.086 152.346 185.875 152.346 186.664 152.346C187.453 152.346 188.242 152.346 188.242 152.346C188.242 152.346 189.031 151.573 188.242 151.573C189.031 151.573 189.82 151.573 189.82 150.799C189.031 150.026 188.242 150.026 186.664 150.026Z" fill="#9FB63A"/>
<path d="M186.664 149.253C187.453 147.706 185.875 147.706 185.086 148.479L184.297 149.253C183.508 148.479 182.719 148.479 181.93 148.479C181.141 148.479 180.352 149.253 180.352 149.253C180.352 150.026 181.141 150.026 181.93 150.026C181.141 150.026 180.352 150.799 180.352 151.573C180.352 152.346 181.93 151.573 182.719 151.573C183.508 151.573 184.297 150.799 185.086 150.799C185.086 151.573 185.875 151.573 186.664 151.573C187.453 151.573 188.242 151.573 188.242 151.573C188.242 151.573 189.031 150.799 188.242 150.799C189.031 150.799 189.82 150.799 189.82 150.026C189.031 149.253 188.242 149.253 186.664 149.253Z" fill="white"/>
<path d="M185.078 150.027C185.078 150.027 184.289 150.8 183.5 150.8C182.711 150.8 181.922 150.8 181.922 150.027C181.922 150.027 182.711 149.253 183.5 149.253C185.078 149.253 185.078 150.027 185.078 150.027Z" fill="#F8C95C"/>
<path opacity="0.4" d="M888.313 110.28C888.313 110.28 888.313 109.507 888.313 110.28C889.102 108.734 887.523 108.734 886.734 109.507L885.945 110.28C885.156 109.507 884.367 109.507 883.578 109.507C882.789 109.507 882 110.28 882 110.28C882 111.054 882.789 111.054 883.578 111.054C882.789 111.054 882 111.827 882 112.6C882 113.374 883.578 112.6 884.367 112.6C885.156 112.6 885.945 111.827 886.734 111.827C886.734 112.6 887.523 112.6 888.313 112.6C889.102 112.6 889.891 112.6 889.891 112.6C889.891 112.6 890.68 111.827 889.891 111.827C890.68 111.827 891.469 111.827 891.469 111.054C890.68 110.28 889.102 110.28 888.313 110.28Z" fill="#9FB63A"/>
<path d="M888.313 109.507C889.102 107.96 887.523 107.96 886.734 108.733L885.945 109.507C885.156 108.733 884.367 108.733 883.578 108.733C882.789 108.733 882 109.507 882 109.507C882 110.28 882.789 110.28 883.578 110.28C882.789 110.28 882 111.053 882 111.827C882 112.6 883.578 111.827 884.367 111.827C885.156 111.827 885.945 111.053 886.734 111.053C886.734 111.827 887.523 111.827 888.313 111.827C889.102 111.827 889.891 111.827 889.891 111.827C889.891 111.827 890.68 111.053 889.891 111.053C890.68 111.053 891.469 111.053 891.469 110.28C890.68 109.507 889.102 109.507 888.313 109.507Z" fill="white"/>
<path d="M886.727 110.281C886.727 110.281 885.937 111.054 885.148 111.054C884.359 111.054 883.57 111.054 883.57 110.281C883.57 110.281 884.359 109.507 885.148 109.507C886.727 109.507 886.727 110.281 886.727 110.281Z" fill="#F8C95C"/>
<path opacity="0.4" d="M902.504 105.64C903.293 104.867 903.293 104.867 902.504 105.64C903.293 104.093 901.715 103.32 900.137 104.093C900.137 104.093 899.348 104.867 898.559 104.867C897.77 104.093 896.191 103.32 894.613 104.093C893.824 104.093 893.035 104.867 893.035 105.64C893.035 106.413 893.824 106.413 895.402 106.413C893.824 107.187 893.035 107.96 893.035 108.733C893.035 109.507 895.402 109.507 896.191 108.733C896.981 108.733 898.559 107.96 899.348 107.187C899.348 107.96 900.137 107.96 900.926 108.733C901.715 108.733 903.293 108.733 903.293 107.96C904.082 107.187 904.082 107.187 904.082 106.413C904.871 106.413 905.66 105.64 906.449 105.64C906.449 105.64 904.871 104.867 902.504 105.64Z" fill="#9FB63A"/>
<path d="M902.504 104.867C903.293 104.867 903.293 104.094 902.504 104.867C903.293 103.32 901.715 102.547 900.137 103.32C900.137 103.32 899.348 104.094 898.559 104.094C897.77 103.32 896.191 102.547 894.613 103.32C893.824 103.32 893.035 104.094 893.035 104.867C893.035 105.64 893.824 105.64 895.402 105.64C893.824 106.413 893.035 107.187 893.035 107.96C893.035 108.733 895.402 107.96 896.191 107.96C896.981 107.96 898.559 107.187 899.348 106.413C899.348 107.187 900.137 107.187 900.926 107.96C901.715 107.96 903.293 107.96 903.293 107.187C904.082 106.413 904.082 106.413 904.082 105.64C904.871 105.64 905.66 104.867 906.449 104.867C906.449 104.867 904.871 104.867 902.504 104.867Z" fill="white"/>
<path d="M900.938 105.64C900.938 106.414 900.148 106.414 899.359 106.414C898.57 106.414 897.781 106.414 897.781 105.64C897.781 104.867 898.57 104.867 899.359 104.867C900.148 104.867 900.938 104.867 900.938 105.64Z" fill="#F8C95C"/>
<path opacity="0.4" d="M1374.31 207.28C1374.31 207.28 1374.31 206.507 1374.31 207.28C1375.1 205.734 1373.52 205.734 1372.73 206.507L1371.95 207.28C1371.16 206.507 1370.37 206.507 1369.58 206.507C1368.79 206.507 1368 207.28 1368 207.28C1368 208.054 1368.79 208.054 1369.58 208.054C1368.79 208.054 1368 208.827 1368 209.6C1368 210.374 1369.58 209.6 1370.37 209.6C1371.16 209.6 1371.95 208.827 1372.73 208.827C1372.73 209.6 1373.52 209.6 1374.31 209.6C1375.1 209.6 1375.89 209.6 1375.89 209.6C1375.89 209.6 1376.68 208.827 1375.89 208.827C1376.68 208.827 1377.47 208.827 1377.47 208.054C1376.68 207.28 1375.1 207.28 1374.31 207.28Z" fill="#9FB63A"/>
<path d="M1374.31 206.507C1375.1 204.96 1373.52 204.96 1372.73 205.733L1371.95 206.507C1371.16 205.733 1370.37 205.733 1369.58 205.733C1368.79 205.733 1368 206.507 1368 206.507C1368 207.28 1368.79 207.28 1369.58 207.28C1368.79 207.28 1368 208.053 1368 208.827C1368 209.6 1369.58 208.827 1370.37 208.827C1371.16 208.827 1371.95 208.053 1372.73 208.053C1372.73 208.827 1373.52 208.827 1374.31 208.827C1375.1 208.827 1375.89 208.827 1375.89 208.827C1375.89 208.827 1376.68 208.053 1375.89 208.053C1376.68 208.053 1377.47 208.053 1377.47 207.28C1376.68 206.507 1375.1 206.507 1374.31 206.507Z" fill="white"/>
<path d="M1372.73 207.281C1372.73 207.281 1371.94 208.054 1371.15 208.054C1370.36 208.054 1369.57 208.054 1369.57 207.281C1369.57 207.281 1370.36 206.507 1371.15 206.507C1372.73 206.507 1372.73 207.281 1372.73 207.281Z" fill="#F8C95C"/>
<path opacity="0.4" d="M1388.5 202.64C1389.29 201.867 1389.29 201.867 1388.5 202.64C1389.29 201.093 1387.71 200.32 1386.14 201.093C1386.14 201.093 1385.35 201.867 1384.56 201.867C1383.77 201.093 1382.19 200.32 1380.61 201.093C1379.82 201.093 1379.04 201.867 1379.04 202.64C1379.04 203.413 1379.82 203.413 1381.4 203.413C1379.82 204.187 1379.04 204.96 1379.04 205.733C1379.04 206.507 1381.4 206.507 1382.19 205.733C1382.98 205.733 1384.56 204.96 1385.35 204.187C1385.35 204.96 1386.14 204.96 1386.93 205.733C1387.71 205.733 1389.29 205.733 1389.29 204.96C1390.08 204.187 1390.08 204.187 1390.08 203.413C1390.87 203.413 1391.66 202.64 1392.45 202.64C1392.45 202.64 1390.87 201.867 1388.5 202.64Z" fill="#9FB63A"/>
<path d="M1388.5 201.867C1389.29 201.867 1389.29 201.094 1388.5 201.867C1389.29 200.32 1387.71 199.547 1386.14 200.32C1386.14 200.32 1385.35 201.094 1384.56 201.094C1383.77 200.32 1382.19 199.547 1380.61 200.32C1379.82 200.32 1379.04 201.094 1379.04 201.867C1379.04 202.64 1379.82 202.64 1381.4 202.64C1379.82 203.413 1379.04 204.187 1379.04 204.96C1379.04 205.733 1381.4 204.96 1382.19 204.96C1382.98 204.96 1384.56 204.187 1385.35 203.413C1385.35 204.187 1386.14 204.187 1386.93 204.96C1387.71 204.96 1389.29 204.96 1389.29 204.187C1390.08 203.413 1390.08 203.413 1390.08 202.64C1390.87 202.64 1391.66 201.867 1392.45 201.867C1392.45 201.867 1390.87 201.867 1388.5 201.867Z" fill="white"/>
<path d="M1386.94 202.64C1386.94 203.414 1386.15 203.414 1385.36 203.414C1384.57 203.414 1383.78 203.414 1383.78 202.64C1383.78 201.867 1384.57 201.867 1385.36 201.867C1386.15 201.867 1386.94 201.867 1386.94 202.64Z" fill="#F8C95C"/>
<path d="M1180.08 9.27991H1189.55C1191.13 6.95992 1193.5 6.95996 1193.5 6.95996C1191.92 6.18663 1191.13 6.18664 1191.13 6.18664C1192.71 5.41332 1193.5 5.41327 1193.5 5.41327C1190.34 3.86661 1187.97 5.41327 1187.97 5.41327C1188.76 3.09329 1191.13 1.54663 1191.13 1.54663C1187.18 0.773304 1184.82 4.63995 1184.82 4.63995C1184.82 2.31997 1186.39 0 1186.39 0C1183.24 1.54666 1183.24 4.63995 1183.24 4.63995C1182.45 2.31997 1180.08 2.32001 1180.08 2.32001C1182.45 3.86666 1181.66 6.18664 1181.66 6.18664C1179.29 3.86666 1176.93 5.41327 1176.93 5.41327C1178.5 5.41327 1180.08 6.95996 1180.08 6.95996C1178.5 6.95996 1176.93 9.27991 1176.93 9.27991C1178.5 7.73325 1180.08 9.27991 1180.08 9.27991Z" fill="#3D9919"/>
<path d="M1180.08 9.27991H1189.55C1191.13 6.95992 1193.5 6.95996 1193.5 6.95996C1191.92 6.18663 1191.13 6.18664 1191.13 6.18664C1192.71 5.41332 1193.5 5.41327 1193.5 5.41327C1190.34 3.86661 1187.97 5.41327 1187.97 5.41327C1188.76 3.09329 1191.13 1.54663 1191.13 1.54663C1187.18 0.773304 1184.82 4.63995 1184.82 4.63995C1184.82 2.31997 1186.39 0 1186.39 0C1183.24 1.54666 1183.24 4.63995 1183.24 4.63995C1182.45 2.31997 1180.08 2.32001 1180.08 2.32001C1182.45 3.86666 1181.66 6.18664 1181.66 6.18664C1179.29 3.86666 1176.93 5.41327 1176.93 5.41327C1178.5 5.41327 1180.08 6.95996 1180.08 6.95996C1178.5 6.95996 1176.93 9.27991 1176.93 9.27991C1178.5 7.73325 1180.08 9.27991 1180.08 9.27991Z" fill="#3D9919"/>
<path d="M1189.54 9.28058C1190.33 7.73391 1192.7 6.96061 1192.7 6.96061C1191.12 6.18728 1189.54 6.96061 1189.54 6.96061C1191.12 5.41395 1193.49 5.41391 1193.49 5.41391C1191.12 4.64058 1187.18 7.73393 1187.18 7.73393C1187.18 5.41393 1191.12 1.54725 1191.12 1.54725C1187.18 1.54725 1184.81 6.18729 1184.81 6.18729C1184.02 3.86729 1185.6 0.773926 1185.6 0.773926C1184.02 2.32059 1184.02 6.18729 1184.02 6.18729C1183.23 4.64063 1182.44 3.86727 1182.44 3.86727C1183.23 5.41393 1184.81 8.50725 1184.81 8.50725C1182.44 6.18726 1180.07 5.41391 1180.07 5.41391C1182.44 6.18724 1184.02 9.28058 1184.02 9.28058C1181.65 6.96058 1178.5 8.50725 1178.5 8.50725C1180.86 7.73392 1182.44 9.28062 1182.44 10.054H1189.54V9.28058Z" fill="#007634"/>
<path d="M1188.77 9.27914C1189.56 9.27914 1190.35 9.27916 1190.35 8.50584V7.73253C1189.56 6.95922 1188.77 6.95923 1187.98 6.95923C1187.2 6.95923 1187.2 6.95922 1186.41 7.73253C1185.62 7.73253 1185.62 8.50583 1185.62 9.27914C1186.41 10.0525 1187.98 10.0525 1188.77 9.27914Z" fill="#A86736"/>
<path d="M1187.99 9.27869H1188.78C1188.78 9.27869 1188.78 9.2787 1188.78 8.50537H1187.99H1187.2C1187.2 8.50537 1186.41 9.27869 1187.2 9.27869C1186.41 9.27869 1187.2 9.27869 1187.99 9.27869Z" fill="#BF753F"/>
<path d="M1184.02 9.2791C1184.02 9.2791 1184.81 9.27911 1185.6 8.50581C1185.6 8.50581 1185.6 8.50582 1185.6 7.73252C1185.6 7.73252 1184.81 6.95923 1184.02 6.95923C1183.23 6.95923 1183.23 6.95923 1183.23 6.95923L1182.44 7.73252C1182.44 10.0524 1184.02 9.2791 1184.02 9.2791Z" fill="#A86736"/>
<path d="M1184.03 9.27991C1184.03 9.27991 1184.03 8.50663 1184.03 9.27991C1184.03 8.50663 1184.03 8.50663 1184.03 9.27991C1183.24 8.50663 1183.24 8.50663 1184.03 9.27991C1183.24 8.50663 1183.24 9.27991 1183.24 9.27991C1183.24 9.27991 1183.24 9.27991 1184.03 9.27991Z" fill="#BF753F"/>
<path d="M685.524 101.827H695.781C697.359 99.5067 700.516 99.5067 700.516 99.5067C698.938 98.7334 698.149 97.96 698.149 97.96C699.727 97.1867 701.305 97.1867 701.305 97.1867C698.149 95.64 694.992 97.1867 694.992 97.1867C696.57 94.8667 698.149 92.5467 698.149 92.5467C693.414 91.7733 691.047 96.4134 691.047 96.4134C691.047 94.0933 692.625 91 692.625 91C689.469 92.5467 688.68 96.4134 688.68 96.4134C687.102 94.0933 684.734 94.0933 684.734 94.0933C687.102 96.4133 686.313 98.7334 686.313 98.7334C683.945 96.4134 680.789 97.96 680.789 97.96C682.367 97.96 683.945 99.5067 683.945 99.5067C681.578 99.5067 680 102.6 680 102.6C683.156 100.28 685.524 101.827 685.524 101.827Z" fill="#3D9919"/>
<path d="M685.524 101.827H695.781C697.359 99.5067 700.516 99.5067 700.516 99.5067C698.938 98.7334 698.149 97.96 698.149 97.96C699.727 97.1867 701.305 97.1867 701.305 97.1867C698.149 95.64 694.992 97.1867 694.992 97.1867C696.57 94.8667 698.149 92.5467 698.149 92.5467C693.414 91.7733 691.047 96.4134 691.047 96.4134C691.047 94.0933 692.625 91 692.625 91C689.469 92.5467 688.68 96.4134 688.68 96.4134C687.102 94.0933 684.734 94.0933 684.734 94.0933C687.102 96.4133 686.313 98.7334 686.313 98.7334C683.945 96.4134 680.789 97.96 680.789 97.96C682.367 97.96 683.945 99.5067 683.945 99.5067C681.578 99.5067 680 102.6 680 102.6C683.156 100.28 685.524 101.827 685.524 101.827Z" fill="#3D9919"/>
<path d="M694.981 101.827C695.77 100.28 698.926 98.7333 698.926 98.7333C697.348 97.96 694.981 98.7333 694.981 98.7333C696.559 97.1867 698.926 96.4133 698.926 96.4133C695.77 95.64 691.824 98.7333 691.824 98.7333C691.824 95.64 696.559 91.7733 696.559 91.7733C691.824 91.7733 689.457 97.1866 689.457 97.1866C688.668 94.8666 690.246 91 690.246 91C688.668 92.5467 688.668 96.4133 688.668 96.4133C687.879 94.8666 687.09 94.0933 687.09 94.0933C688.668 96.4133 689.457 99.5066 689.457 99.5066C687.09 96.4133 684.723 96.4133 684.723 96.4133C687.879 97.1866 689.457 100.28 689.457 100.28C686.301 97.96 683.145 99.5066 683.145 99.5066C685.512 98.7333 687.09 100.28 687.879 101.053H694.981V101.827Z" fill="#007634"/>
<path d="M694.203 102.6C694.992 102.6 695.781 102.6 696.57 101.826V101.053C695.781 100.28 694.992 100.28 694.203 100.28C693.414 100.28 692.625 100.28 692.625 101.053C691.836 101.053 691.836 101.826 691.836 102.6C691.836 102.6 694.203 102.6 694.203 102.6Z" fill="#A86736"/>
<path d="M693.402 102.6H694.191C694.191 102.6 694.191 102.6 694.191 101.826C694.191 101.826 693.402 101.826 692.613 101.053H691.824L691.035 101.826C692.613 102.6 693.402 102.6 693.402 102.6Z" fill="#BF753F"/>
<path d="M689.457 102.6C690.246 102.6 690.246 102.6 691.035 101.826V101.053C691.035 101.053 690.246 100.28 689.457 100.28C688.668 100.28 688.668 100.28 687.879 100.28L687.09 101.053C687.879 102.6 689.457 102.6 689.457 102.6Z" fill="#A86736"/>
<path d="M689.471 102.599C690.261 101.826 690.261 101.826 689.471 102.599C690.261 101.826 689.471 101.826 689.471 101.826H688.682C688.682 101.826 688.682 101.826 688.682 102.599C687.893 102.599 688.682 102.599 689.471 102.599Z" fill="#BF753F"/>
<path d="M833.524 74.8267H843.781C845.359 72.5067 848.516 72.5067 848.516 72.5067C846.938 71.7334 846.149 70.96 846.149 70.96C847.727 70.1867 849.305 70.1867 849.305 70.1867C846.149 68.64 842.992 70.1867 842.992 70.1867C844.57 67.8667 846.149 65.5467 846.149 65.5467C841.414 64.7733 839.047 69.4134 839.047 69.4134C839.047 67.0933 840.625 64 840.625 64C837.469 65.5467 836.68 69.4134 836.68 69.4134C835.102 67.0933 832.734 67.0933 832.734 67.0933C835.102 69.4133 834.313 71.7334 834.313 71.7334C831.945 69.4134 828.789 70.96 828.789 70.96C830.367 70.96 831.945 72.5067 831.945 72.5067C829.578 72.5067 828 75.6001 828 75.6001C831.156 73.2801 833.524 74.8267 833.524 74.8267Z" fill="#3D9919"/>
<path d="M833.524 74.8267H843.781C845.359 72.5067 848.516 72.5067 848.516 72.5067C846.938 71.7334 846.149 70.96 846.149 70.96C847.727 70.1867 849.305 70.1867 849.305 70.1867C846.149 68.64 842.992 70.1867 842.992 70.1867C844.57 67.8667 846.149 65.5467 846.149 65.5467C841.414 64.7733 839.047 69.4134 839.047 69.4134C839.047 67.0933 840.625 64 840.625 64C837.469 65.5467 836.68 69.4134 836.68 69.4134C835.102 67.0933 832.734 67.0933 832.734 67.0933C835.102 69.4133 834.313 71.7334 834.313 71.7334C831.945 69.4134 828.789 70.96 828.789 70.96C830.367 70.96 831.945 72.5067 831.945 72.5067C829.578 72.5067 828 75.6001 828 75.6001C831.156 73.2801 833.524 74.8267 833.524 74.8267Z" fill="#3D9919"/>
<path d="M842.981 74.8266C843.77 73.2799 846.926 71.7333 846.926 71.7333C845.348 70.96 842.981 71.7333 842.981 71.7333C844.559 70.1867 846.926 69.4133 846.926 69.4133C843.77 68.64 839.824 71.7333 839.824 71.7333C839.824 68.64 844.559 64.7733 844.559 64.7733C839.824 64.7733 837.457 70.1866 837.457 70.1866C836.668 67.8666 838.246 64 838.246 64C836.668 65.5467 836.668 69.4133 836.668 69.4133C835.879 67.8666 835.09 67.0933 835.09 67.0933C836.668 69.4133 837.457 72.5066 837.457 72.5066C835.09 69.4133 832.723 69.4133 832.723 69.4133C835.879 70.1866 837.457 73.28 837.457 73.28C834.301 70.96 831.145 72.5066 831.145 72.5066C833.512 71.7333 835.09 73.2799 835.879 74.0533H842.981V74.8266Z" fill="#007634"/>
<path d="M842.203 75.5996C842.992 75.5996 843.781 75.5996 844.57 74.8262V74.0529C843.781 73.2795 842.992 73.2795 842.203 73.2795C841.414 73.2795 840.625 73.2795 840.625 74.0529C839.836 74.0529 839.836 74.8263 839.836 75.5996C839.836 75.5996 842.203 75.5996 842.203 75.5996Z" fill="#A86736"/>
<path d="M841.402 75.5997H842.191C842.191 75.5997 842.191 75.5997 842.191 74.8263C842.191 74.8263 841.402 74.8263 840.613 74.053H839.824L839.035 74.8263C840.613 75.5997 841.402 75.5997 841.402 75.5997Z" fill="#BF753F"/>
<path d="M837.457 75.5996C838.246 75.5996 838.246 75.5996 839.035 74.8262V74.0529C839.035 74.0529 838.246 73.2795 837.457 73.2795C836.668 73.2795 836.668 73.2795 835.879 73.2795L835.09 74.0529C835.879 75.5996 837.457 75.5996 837.457 75.5996Z" fill="#A86736"/>
<path d="M837.471 75.5994C838.261 74.826 838.261 74.826 837.471 75.5994C838.261 74.826 837.471 74.8259 837.471 74.8259H836.682C836.682 74.8259 836.682 74.826 836.682 75.5994C835.893 75.5994 836.682 75.5994 837.471 75.5994Z" fill="#BF753F"/>
<path d="M222.156 156.214H232.414C233.992 153.894 237.149 153.894 237.149 153.894C235.57 153.12 234.781 152.347 234.781 152.347C236.36 151.574 237.938 151.574 237.938 151.574C234.781 150.027 231.625 151.574 231.625 151.574C233.203 149.254 234.781 146.934 234.781 146.934C230.047 146.16 227.68 150.8 227.68 150.8C227.68 148.48 229.258 145.387 229.258 145.387C226.102 146.934 225.313 150.8 225.313 150.8C223.734 148.48 221.367 148.48 221.367 148.48C223.734 150.8 222.945 153.12 222.945 153.12C220.578 150.8 217.422 152.347 217.422 152.347C219 152.347 220.578 153.894 220.578 153.894C218.211 153.894 216.633 156.987 216.633 156.987C219.789 154.667 222.156 156.214 222.156 156.214Z" fill="#3D9919"/>
<path d="M222.156 156.214H232.414C233.992 153.894 237.149 153.894 237.149 153.894C235.57 153.12 234.781 152.347 234.781 152.347C236.36 151.574 237.938 151.574 237.938 151.574C234.781 150.027 231.625 151.574 231.625 151.574C233.203 149.254 234.781 146.934 234.781 146.934C230.047 146.16 227.68 150.8 227.68 150.8C227.68 148.48 229.258 145.387 229.258 145.387C226.102 146.934 225.313 150.8 225.313 150.8C223.734 148.48 221.367 148.48 221.367 148.48C223.734 150.8 222.945 153.12 222.945 153.12C220.578 150.8 217.422 152.347 217.422 152.347C219 152.347 220.578 153.894 220.578 153.894C218.211 153.894 216.633 156.987 216.633 156.987C219.789 154.667 222.156 156.214 222.156 156.214Z" fill="#3D9919"/>
<path d="M232.414 156.214C233.203 154.667 236.36 153.12 236.36 153.12C234.781 152.347 232.414 153.12 232.414 153.12C233.992 151.574 236.36 150.8 236.36 150.8C233.203 150.027 229.258 153.12 229.258 153.12C229.258 150.027 233.992 146.16 233.992 146.16C229.258 146.16 226.891 151.574 226.891 151.574C226.102 149.254 227.68 145.387 227.68 145.387C226.102 146.934 226.102 150.8 226.102 150.8C225.313 149.254 224.524 148.48 224.524 148.48C226.102 150.8 226.891 153.894 226.891 153.894C224.524 150.8 222.156 150.8 222.156 150.8C225.313 151.574 226.891 154.667 226.891 154.667C223.734 152.347 220.578 153.894 220.578 153.894C222.945 153.12 224.524 154.667 225.313 155.44H232.414V156.214Z" fill="#007634"/>
<path d="M231.637 156.987C232.426 156.987 233.215 156.987 234.004 156.214V155.44C233.215 154.667 232.426 154.667 231.637 154.667C230.848 154.667 230.059 154.667 230.059 155.44C229.27 155.44 229.27 156.214 229.27 156.987C229.27 156.987 230.848 156.987 231.637 156.987Z" fill="#A86736"/>
<path d="M230.836 156.987H231.625C231.625 156.987 231.625 156.987 231.625 156.214C231.625 156.214 230.836 156.214 230.047 155.44H229.258L228.469 156.214C229.258 156.987 230.047 156.987 230.836 156.987Z" fill="#BF753F"/>
<path d="M226.09 156.987C226.879 156.987 226.879 156.987 227.668 156.213V155.44C227.668 155.44 226.879 154.667 226.09 154.667C225.301 154.667 225.301 154.667 224.512 154.667L223.723 155.44C224.512 156.987 226.09 156.987 226.09 156.987Z" fill="#A86736"/>
<path d="M226.082 156.986C226.871 156.213 226.871 156.213 226.082 156.986C226.871 156.213 226.082 156.213 226.082 156.213H225.293C225.293 156.213 225.293 156.213 225.293 156.986C225.293 156.986 225.293 156.986 226.082 156.986Z" fill="#BF753F"/>
<path d="M222.156 156.214H232.414C233.992 153.894 237.149 153.894 237.149 153.894C235.57 153.12 234.781 152.347 234.781 152.347C236.36 151.574 237.938 151.574 237.938 151.574C234.781 150.027 231.625 151.574 231.625 151.574C233.203 149.254 234.781 146.934 234.781 146.934C230.047 146.16 227.68 150.8 227.68 150.8C227.68 148.48 229.258 145.387 229.258 145.387C226.102 146.934 225.313 150.8 225.313 150.8C223.734 148.48 221.367 148.48 221.367 148.48C223.734 150.8 222.945 153.12 222.945 153.12C220.578 150.8 217.422 152.347 217.422 152.347C219 152.347 220.578 153.894 220.578 153.894C218.211 153.894 216.633 156.987 216.633 156.987C219.789 154.667 222.156 156.214 222.156 156.214Z" fill="#3D9919"/>
<path d="M222.156 156.214H232.414C233.992 153.894 237.149 153.894 237.149 153.894C235.57 153.12 234.781 152.347 234.781 152.347C236.36 151.574 237.938 151.574 237.938 151.574C234.781 150.027 231.625 151.574 231.625 151.574C233.203 149.254 234.781 146.934 234.781 146.934C230.047 146.16 227.68 150.8 227.68 150.8C227.68 148.48 229.258 145.387 229.258 145.387C226.102 146.934 225.313 150.8 225.313 150.8C223.734 148.48 221.367 148.48 221.367 148.48C223.734 150.8 222.945 153.12 222.945 153.12C220.578 150.8 217.422 152.347 217.422 152.347C219 152.347 220.578 153.894 220.578 153.894C218.211 153.894 216.633 156.987 216.633 156.987C219.789 154.667 222.156 156.214 222.156 156.214Z" fill="#3D9919"/>
<path d="M232.414 156.214C233.203 154.667 236.36 153.12 236.36 153.12C234.781 152.347 232.414 153.12 232.414 153.12C233.992 151.574 236.36 150.8 236.36 150.8C233.203 150.027 229.258 153.12 229.258 153.12C229.258 150.027 233.992 146.16 233.992 146.16C229.258 146.16 226.891 151.574 226.891 151.574C226.102 149.254 227.68 145.387 227.68 145.387C226.102 146.934 226.102 150.8 226.102 150.8C225.313 149.254 224.524 148.48 224.524 148.48C226.102 150.8 226.891 153.894 226.891 153.894C224.524 150.8 222.156 150.8 222.156 150.8C225.313 151.574 226.891 154.667 226.891 154.667C223.734 152.347 220.578 153.894 220.578 153.894C222.945 153.12 224.524 154.667 225.313 155.44H232.414V156.214Z" fill="#007634"/>
<path d="M231.637 156.987C232.426 156.987 233.215 156.987 234.004 156.214V155.44C233.215 154.667 232.426 154.667 231.637 154.667C230.848 154.667 230.059 154.667 230.059 155.44C229.27 155.44 229.27 156.214 229.27 156.987C229.27 156.987 230.848 156.987 231.637 156.987Z" fill="#A86736"/>
<path d="M230.836 156.987H231.625C231.625 156.987 231.625 156.987 231.625 156.214C231.625 156.214 230.836 156.214 230.047 155.44H229.258L228.469 156.214C229.258 156.987 230.047 156.987 230.836 156.987Z" fill="#BF753F"/>
<path d="M226.09 156.987C226.879 156.987 226.879 156.987 227.668 156.213V155.44C227.668 155.44 226.879 154.667 226.09 154.667C225.301 154.667 225.301 154.667 224.512 154.667L223.723 155.44C224.512 156.987 226.09 156.987 226.09 156.987Z" fill="#A86736"/>
<path d="M226.082 156.986C226.871 156.213 226.871 156.213 226.082 156.986C226.871 156.213 226.082 156.213 226.082 156.213H225.293C225.293 156.213 225.293 156.213 225.293 156.986C225.293 156.986 225.293 156.986 226.082 156.986Z" fill="#BF753F"/>
<path d="M451.524 143.189H461.781C463.36 140.869 466.516 140.869 466.516 140.869C464.938 140.095 464.149 139.322 464.149 139.322C465.727 138.548 467.305 138.548 467.305 138.548C464.149 137.002 460.992 138.548 460.992 138.548C462.57 136.228 464.149 133.908 464.149 133.908C459.414 133.135 457.047 137.775 457.047 137.775C457.047 135.455 458.625 132.362 458.625 132.362C455.469 133.908 454.68 137.775 454.68 137.775C453.102 135.455 450.734 135.455 450.734 135.455C453.102 137.775 452.313 140.095 452.313 140.095C449.945 137.775 446.789 139.322 446.789 139.322C448.367 139.322 449.945 140.869 449.945 140.869C447.578 140.869 446 143.962 446 143.962C449.156 141.642 451.524 143.189 451.524 143.189Z" fill="#3D9919"/>
<path d="M451.524 143.189H461.781C463.36 140.869 466.516 140.869 466.516 140.869C464.938 140.095 464.149 139.322 464.149 139.322C465.727 138.548 467.305 138.548 467.305 138.548C464.149 137.002 460.992 138.548 460.992 138.548C462.57 136.228 464.149 133.908 464.149 133.908C459.414 133.135 457.047 137.775 457.047 137.775C457.047 135.455 458.625 132.362 458.625 132.362C455.469 133.908 454.68 137.775 454.68 137.775C453.102 135.455 450.734 135.455 450.734 135.455C453.102 137.775 452.313 140.095 452.313 140.095C449.945 137.775 446.789 139.322 446.789 139.322C448.367 139.322 449.945 140.869 449.945 140.869C447.578 140.869 446 143.962 446 143.962C449.156 141.642 451.524 143.189 451.524 143.189Z" fill="#3D9919"/>
<path d="M461.781 143.188C462.571 141.642 465.727 140.095 465.727 140.095C464.149 139.322 461.781 140.095 461.781 140.095C463.36 138.548 465.727 137.775 465.727 137.775C462.571 137.002 458.625 140.095 458.625 140.095C458.625 137.002 463.36 133.135 463.36 133.135C458.625 133.135 456.258 138.548 456.258 138.548C455.469 136.228 457.047 132.362 457.047 132.362C455.469 133.908 455.469 137.775 455.469 137.775C454.68 136.228 453.891 135.455 453.891 135.455C455.469 137.775 456.258 140.868 456.258 140.868C453.891 137.775 451.524 137.775 451.524 137.775C454.68 138.548 456.258 141.642 456.258 141.642C453.102 139.322 449.945 140.868 449.945 140.868C452.313 140.095 453.891 141.642 454.68 142.415H461.781V143.188Z" fill="#007634"/>
<path d="M461.004 143.962C461.793 143.962 462.582 143.962 463.371 143.188V142.415C462.582 141.642 461.793 141.642 461.004 141.642C460.215 141.642 459.426 141.642 459.426 142.415C458.637 142.415 458.637 143.188 458.637 143.962C458.637 143.962 460.215 143.962 461.004 143.962Z" fill="#A86736"/>
<path d="M460.203 143.962H460.992C460.992 143.962 460.992 143.962 460.992 143.188C460.992 143.188 460.203 143.188 459.414 142.415H458.625L457.836 143.188C458.625 143.962 459.414 143.962 460.203 143.962Z" fill="#BF753F"/>
<path d="M455.457 143.961C456.246 143.961 456.246 143.961 457.035 143.188V142.415C457.035 142.415 456.246 141.641 455.457 141.641C454.668 141.641 454.668 141.641 453.879 141.641L453.09 142.415C453.879 143.961 455.457 143.961 455.457 143.961Z" fill="#A86736"/>
<path d="M455.449 143.961C456.238 143.188 456.238 143.188 455.449 143.961C456.238 143.188 455.449 143.188 455.449 143.188H454.66C454.66 143.188 454.66 143.188 454.66 143.961C454.66 143.961 454.66 143.961 455.449 143.961Z" fill="#BF753F"/>
</svg>
